<?xml version="1.0" ?><!DOCTYPE svg  PUBLIC '-//W3C//DTD SVG 1.1//EN'  'http://www.w3.org/Graphics/SVG/1.1/DTD/svg11.dtd'><svg enable-background="new 0 0 500 500" height="500px" id="Capa_1" version="1.1" viewBox="0 0 500 500" width="500px" xml:space="preserve" xmlns="http://www.w3.org/2000/svg" xmlns:xlink="http://www.w3.org/1999/xlink"><path d="M412.226,87.133L88.29,412.367c41.458,40.974,98.435,66.279,161.33,66.279  c126.765,0,229.527-102.764,229.527-229.527C479.146,185.895,453.58,128.644,412.226,87.133z" fill="#EAEAEA"/><path d="M249.619,19.592c-126.765,0-229.527,102.762-229.527,229.527c0,63.87,26.096,121.639,68.197,163.248  L412.226,87.133C370.665,45.414,313.159,19.592,249.619,19.592z" fill="#D3D3D3"/><circle cx="249.062" cy="248.562" fill="none" r="243.438" stroke="#D3D3D3" stroke-miterlimit="10" stroke-width="5"/><linearGradient gradientUnits="userSpaceOnUse" id="SVGID_1_" x1="133.7017" x2="303.5215" y1="182.1011" y2="182.1011"><stop offset="0" style="stop-color:#60D8A1"/><stop offset="1" style="stop-color:#E2F286"/></linearGradient><path clip-rule="evenodd" d="M145.692,117.905c-5.341-2.545-8.817-2.885-11.99-0.996  l128.07,131.586l41.75-43.559C239.685,169.414,150.55,120.22,145.692,117.905z" fill="url(#SVGID_1_)" fill-rule="evenodd"/><linearGradient gradientUnits="userSpaceOnUse" id="SVGID_2_" x1="316.3691" x2="316.3691" y1="204.936" y2="292.1782"><stop offset="0" style="stop-color:#F4905D"/><stop offset="1" style="stop-color:#F9D367"/></linearGradient><path clip-rule="evenodd" d="M367.719,241.115c-0.713-0.726-28.5-16.315-64.197-36.179  l-41.75,43.559l42.516,43.683c34.723-19.252,61.721-34.364,63.104-35.542C372.147,252.58,372.061,245.526,367.719,241.115z" fill="url(#SVGID_2_)" fill-rule="evenodd"/><linearGradient gradientUnits="userSpaceOnUse" id="SVGID_3_" x1="193.8862" x2="193.8862" y1="380.5742" y2="116.9097"><stop offset="0" style="stop-color:#61FFBB"/><stop offset="1" style="stop-color:#4271A1"/></linearGradient><path clip-rule="evenodd" d="M133.702,116.909c-1.654,0.985-3.228,2.565-4.938,4.778  c-2.638,3.415-2.768,7.366-2.764,11.445c0.075,77.114,0.078,233.95,0.213,235.235c0.489,4.653,4.25,10.249,8.966,12.207  l126.593-132.079L133.702,116.909z" fill="url(#SVGID_3_)" fill-rule="evenodd"/><linearGradient gradientUnits="userSpaceOnUse" id="SVGID_4_" x1="135.1787" x2="304.2871" y1="314.8936" y2="314.8936"><stop offset="0" style="stop-color:#A046F7"/><stop offset="1" style="stop-color:#D82E2E"/></linearGradient><path clip-rule="evenodd" d="M135.179,380.574c1.309,0.543,2.691,0.807,4.097,0.691  c2.092-0.562,4.345-0.803,6.245-1.749c3.388-1.688,94.364-51.634,158.767-87.339l-42.516-43.683L135.179,380.574z" fill="url(#SVGID_4_)" fill-rule="evenodd"/></svg>