<?xml version="1.0" ?><svg height="100px" width="100px" enable-background="new 0 0 64 64" version="1.1" viewBox="0 0 64 64" xml:space="preserve" xmlns="http://www.w3.org/2000/svg" xmlns:xlink="http://www.w3.org/1999/xlink"><g id="Shopping_5_Glyph"><g><rect height="1" width="26.196" x="18.902" y="43.787"/><rect height="1" width="20.383" x="21.809" y="47.149"/><path d="M35.122,19.71c0-0.302-0.245-0.547-0.547-0.547h-5.151c-0.302,0-0.547,0.245-0.547,0.547v1.828h6.245V19.71z"/><path d="M44,14.071H20v24h24V14.071z M23.248,33.412l2.458-11.873h2.078V19.71c0-0.905,0.736-1.641,1.641-1.641h5.151    c0.905,0,1.641,0.736,1.641,1.641v1.828h2.077l2.458,11.873H23.248z"/><circle cx="34.644" cy="24.776" r="0.955"/><circle cx="29.356" cy="24.776" r="0.955"/><path d="M19.625,64h24.75c4.4,0,8-3.6,8-8V8c0-4.4-3.6-8-8-8h-24.75c-4.4,0-8,3.6-8,8v48C11.625,60.4,15.225,64,19.625,64z     M35.391,61.034h-6.783c-0.937,0-1.696-0.758-1.696-1.696c0-0.937,0.758-1.696,1.696-1.696h6.783c0.937,0,1.696,0.758,1.696,1.696    C37.087,60.276,36.329,61.034,35.391,61.034z M32,2.272c0.828,0,1.5,0.672,1.5,1.5s-0.672,1.5-1.5,1.5c-0.828,0-1.5-0.672-1.5-1.5    S31.172,2.272,32,2.272z M14.5,7.552h35v47.115h-35V7.552z"/></g></g></svg>