<?xml version="1.0" ?><svg height="100px" width="100px" enable-background="new 0 0 64 64" version="1.1" viewBox="0 0 64 64" xml:space="preserve" xmlns="http://www.w3.org/2000/svg" xmlns:xlink="http://www.w3.org/1999/xlink"><g id="Glyph_sample_2nd_style_copy"><path d="M63.989,50.697H37.373c-0.102,0.561-0.603,1-1.229,1h-8.3c-0.627,0-1.127-0.439-1.229-1H0v1h0.011l3.199,2h57.59l3.199-2   h-0.011V50.697z"/><rect height="4.068" width="1.941" x="12.065" y="26.285"/><path d="M57.596,10.304H6.415c-0.88,0-1.6,0.72-1.6,1.6v36.794c0,0,54.513,0,54.38,0V11.903   C59.195,11.023,58.475,10.304,57.596,10.304z M43.377,17.705c3.176,0,5.751,2.575,5.751,5.751c0,3.176-2.575,5.751-5.751,5.751   s-5.751-2.575-5.751-5.751C37.626,20.28,40.201,17.705,43.377,17.705z M24.683,16.985h1.941v13.368h-1.941V16.985z M21.529,18.729   h1.941v11.625h-1.941V18.729z M18.374,21.345h1.941v9.009h-1.941V21.345z M15.22,23.96h1.941v6.394H15.22V23.96z M26.749,37.569   l-0.804-0.847l-4.488,5.355l-4.979-5.32l-5.011,5.976l-0.766-0.643l5.735-6.841l4.979,5.32l3.836-4.576l-0.836-0.881l3.188-0.9   L26.749,37.569z M53.298,41.957H33.457c0-0.026,0-0.431,0-5.091c0-5.391,5.849-5.457,5.849-5.457h8.143   c0,0,5.849,0.098,5.849,5.457C53.298,41.525,53.298,41.93,53.298,41.957z"/></g></svg>